<svg width="19" height="19" viewBox="0 0 19 19" fill="none" xmlns="http://www.w3.org/2000/svg">
<path d="M18.2243 9.49748C18.2243 10.2108 17.646 10.7891 16.9327 10.7891H10.4743V17.2475C10.4743 17.9608 9.89603 18.5391 9.18266 18.5391C8.46929 18.5391 7.89099 17.9608 7.89099 17.2475V10.7891H1.43266C0.71929 10.7891 0.140991 10.2108 0.140991 9.49748C0.140991 8.78411 0.71929 8.20581 1.43266 8.20581H7.89099V1.74748C7.89099 1.03411 8.46929 0.455811 9.18266 0.455811C9.89603 0.455811 10.4743 1.03411 10.4743 1.74748V8.20581H16.9327C17.646 8.20581 18.2243 8.78411 18.2243 9.49748Z" fill="#7C58FF"/>
</svg>
