<svg width="27" height="27" viewBox="0 0 27 27" fill="none" xmlns="http://www.w3.org/2000/svg">
<path d="M6.07849 20.6041L15.766 16.0833L20.2868 6.39581L10.5993 10.9166L6.07849 20.6041ZM13.1827 14.7916C12.8167 14.7916 12.5101 14.6676 12.263 14.4196C12.015 14.1725 11.891 13.866 11.891 13.5C11.891 13.134 12.015 12.827 12.263 12.579C12.5101 12.3319 12.8167 12.2083 13.1827 12.2083C13.5486 12.2083 13.8556 12.3319 14.1036 12.579C14.3508 12.827 14.4743 13.134 14.4743 13.5C14.4743 13.866 14.3508 14.1725 14.1036 14.4196C13.8556 14.6676 13.5486 14.7916 13.1827 14.7916ZM13.1827 26.4166C11.3959 26.4166 9.71669 26.0774 8.14516 25.3988C6.57363 24.7211 5.20662 23.801 4.04412 22.6385C2.88162 21.476 1.96152 20.109 1.28382 18.5375C0.605269 16.966 0.265991 15.2868 0.265991 13.5C0.265991 11.7132 0.605269 10.034 1.28382 8.46248C1.96152 6.89095 2.88162 5.52394 4.04412 4.36144C5.20662 3.19894 6.57363 2.27841 8.14516 1.59985C9.71669 0.92216 11.3959 0.583313 13.1827 0.583313C14.9695 0.583313 16.6486 0.92216 18.2202 1.59985C19.7917 2.27841 21.1587 3.19894 22.3212 4.36144C23.4837 5.52394 24.4038 6.89095 25.0815 8.46248C25.76 10.034 26.0993 11.7132 26.0993 13.5C26.0993 15.2868 25.76 16.966 25.0815 18.5375C24.4038 20.109 23.4837 21.476 22.3212 22.6385C21.1587 23.801 19.7917 24.7211 18.2202 25.3988C16.6486 26.0774 14.9695 26.4166 13.1827 26.4166ZM13.1827 23.8333C16.0674 23.8333 18.5108 22.8323 20.5129 20.8302C22.5149 18.8281 23.516 16.3847 23.516 13.5C23.516 10.6153 22.5149 8.17185 20.5129 6.16977C18.5108 4.16769 16.0674 3.16665 13.1827 3.16665C10.2979 3.16665 7.85453 4.16769 5.85245 6.16977C3.85037 8.17185 2.84932 10.6153 2.84932 13.5C2.84932 16.3847 3.85037 18.8281 5.85245 20.8302C7.85453 22.8323 10.2979 23.8333 13.1827 23.8333Z" fill="#7C828B"/>
</svg>
