<svg width="24" height="25" viewBox="0 0 24 25" fill="none" xmlns="http://www.w3.org/2000/svg">
<path d="M1.68213 6.20026C1.68213 5.08628 2.12466 4.01793 2.91236 3.23023C3.70006 2.44253 4.76841 2 5.88239 2H18.4832C19.5971 2 20.6655 2.44253 21.4532 3.23023C22.2409 4.01793 22.6834 5.08628 22.6834 6.20026V18.801C22.6834 19.915 22.2409 20.9834 21.4532 21.7711C20.6655 22.5588 19.5971 23.0013 18.4832 23.0013H5.88239C4.76841 23.0013 3.70006 22.5588 2.91236 21.7711C2.12466 20.9834 1.68213 19.915 1.68213 18.801V6.20026Z" stroke="#7C828B" stroke-width="2.10013" stroke-linecap="round" stroke-linejoin="round"/>
<path d="M8.50736 11.45C9.9572 11.45 11.1325 10.2747 11.1325 8.82487C11.1325 7.37503 9.9572 6.19971 8.50736 6.19971C7.05753 6.19971 5.8822 7.37503 5.8822 8.82487C5.8822 10.2747 7.05753 11.45 8.50736 11.45Z" stroke="#7C828B" stroke-width="2.10013" stroke-linecap="round" stroke-linejoin="round"/>
<path d="M14.8351 13.1525L5.8822 23.001H18.6226C19.6996 23.001 20.7324 22.5732 21.4939 21.8117C22.2554 21.0502 22.6832 20.0174 22.6832 18.9404V18.8008C22.6832 18.3114 22.4995 18.1235 22.1687 17.7612L17.9369 13.1462C17.7397 12.931 17.4998 12.7594 17.2325 12.6421C16.9653 12.5249 16.6765 12.4646 16.3846 12.4652C16.0927 12.4658 15.8042 12.5272 15.5374 12.6456C15.2706 12.7639 15.0314 12.9365 14.8351 13.1525Z" stroke="#7C828B" stroke-width="2.10013" stroke-linecap="round" stroke-linejoin="round"/>
</svg>
