<svg width="57" height="33" viewBox="0 0 57 33" fill="none" xmlns="http://www.w3.org/2000/svg">
<path d="M0.682617 7.595L0.682617 12.2001L5.28769 12.2001L5.28769 7.595L0.682617 7.595Z" stroke="#2C3E50" stroke-width="0.767512" stroke-linecap="round" stroke-linejoin="round"/>
<path d="M7.30957 7.595L7.30957 12.2001L11.9146 12.2001L11.9146 7.595L7.30957 7.595Z" stroke="#B49FFF" stroke-width="0.767512" stroke-linecap="round" stroke-linejoin="round"/>
<path d="M7.01465 0.879547L7.01465 5.48462L11.6197 5.48462L11.6197 0.879546L7.01465 0.879547Z" stroke="#2C3E50" stroke-width="0.767512" stroke-linecap="round" stroke-linejoin="round"/>
<path d="M0.682617 7.595L0.682617 12.2001L5.28769 12.2001L5.28769 7.595L0.682617 7.595Z" stroke="#D2C6FF" stroke-width="0.767512" stroke-linecap="round" stroke-linejoin="round"/>
<path d="M13.6416 0.879547L13.6416 5.48462L18.2467 5.48462L18.2467 0.879546L13.6416 0.879547Z" stroke="#5E33FA" stroke-width="0.767512" stroke-linecap="round" stroke-linejoin="round"/>
<path d="M7.01465 0.879547L7.01465 5.48462L11.6197 5.48462L11.6197 0.879546L7.01465 0.879547Z" stroke="#664AC9" stroke-width="0.767512" stroke-linecap="round" stroke-linejoin="round"/>
<path d="M19.6786 7.595L19.6786 12.2001L24.2837 12.2001L24.2837 7.595L19.6786 7.595Z" stroke="#2C3E50" stroke-width="0.767512" stroke-linecap="round" stroke-linejoin="round"/>
<path d="M19.6786 0.879547L19.6786 5.48462L24.2837 5.48462L24.2837 0.879546L19.6786 0.879547Z" stroke="#2C3E50" stroke-width="0.767512" stroke-linecap="round" stroke-linejoin="round"/>
<path d="M19.6786 7.595L19.6786 12.2001L24.2837 12.2001L24.2837 7.595L19.6786 7.595Z" stroke="#170C40" stroke-width="0.767512" stroke-linecap="round" stroke-linejoin="round"/>
<path d="M19.6786 0.879547L19.6786 5.48462L24.2837 5.48462L24.2837 0.879546L19.6786 0.879547Z" stroke="#37208A" stroke-width="0.767512" stroke-linecap="round" stroke-linejoin="round"/>
<path d="M26.0106 7.595L26.0106 12.2001L30.6157 12.2001L30.6157 7.595L26.0106 7.595Z" stroke="#2C3E50" stroke-width="0.767512" stroke-linecap="round" stroke-linejoin="round"/>
<path d="M26.0106 7.595L26.0106 12.2001L30.6157 12.2001L30.6157 7.595L26.0106 7.595Z" stroke="#0B051F" stroke-width="0.767512" stroke-linecap="round" stroke-linejoin="round"/>
<path d="M32.3424 7.595L32.3424 12.2001L36.9475 12.2001L36.9475 7.595L32.3424 7.595Z" stroke="#2C3E50" stroke-width="0.767512" stroke-linecap="round" stroke-linejoin="round"/>
<path d="M32.3424 0.879547L32.3424 5.48462L36.9475 5.48462L36.9475 0.879546L32.3424 0.879547Z" stroke="#2C3E50" stroke-width="0.767512" stroke-linecap="round" stroke-linejoin="round"/>
<path d="M32.3424 7.595L32.3424 12.2001L36.9475 12.2001L36.9475 7.595L32.3424 7.595Z" stroke="#170C40" stroke-width="0.767512" stroke-linecap="round" stroke-linejoin="round"/>
<path d="M32.3424 0.879547L32.3424 5.48462L36.9475 5.48462L36.9475 0.879546L32.3424 0.879547Z" stroke="#37208A" stroke-width="0.767512" stroke-linecap="round" stroke-linejoin="round"/>
<path d="M38.6744 0.879547L38.6744 5.48462L43.2795 5.48462L43.2795 0.879546L38.6744 0.879547Z" stroke="#2C3E50" stroke-width="0.767512" stroke-linecap="round" stroke-linejoin="round"/>
<path d="M38.6744 0.879547L38.6744 5.48462L43.2795 5.48462L43.2795 0.879546L38.6744 0.879547Z" stroke="#5E33FA" stroke-width="0.767512" stroke-linecap="round" stroke-linejoin="round"/>
<path d="M45.0066 7.595L45.0066 12.2001L49.6117 12.2001L49.6117 7.595L45.0066 7.595Z" stroke="#2C3E50" stroke-width="0.767512" stroke-linecap="round" stroke-linejoin="round"/>
<path d="M51.6334 7.595L51.6334 12.2001L56.2385 12.2001L56.2385 7.595L51.6334 7.595Z" stroke="#D2C6FF" stroke-width="0.767512" stroke-linecap="round" stroke-linejoin="round"/>
<path d="M45.0066 0.879547L45.0066 5.48462L49.6117 5.48462L49.6117 0.879546L45.0066 0.879547Z" stroke="#664AC9" stroke-width="0.767512" stroke-linecap="round" stroke-linejoin="round"/>
<path d="M11.6197 25.6319L11.6197 21.0269L7.01459 21.0269L5.28769 21.0269L5.28769 18.9162L5.28769 14.3111L0.682616 14.3111L0.682617 18.9162L0.682617 21.0269L0.682617 25.6319L5.28769 25.6319L7.01459 25.6319L7.01459 27.7426L7.01459 32.3477L11.6197 32.3477L19.6785 32.3477L24.2836 32.3477L24.2836 27.7426L24.2836 25.6319L26.0105 25.6319L30.6156 25.6319L32.3425 25.6319L32.3425 32.3477L34.645 32.3477L36.9476 32.3477L38.6745 32.3477L43.2795 32.3477L49.6115 32.3477L49.6115 29.3735L49.6115 27.7426L49.6115 25.6319L51.3384 25.6319L55.9435 25.6319L55.9435 24.5114L55.9435 21.0269L55.9435 18.9162L55.9435 14.3111L51.3384 14.3111L51.3384 18.9162L51.3384 21.0269L49.6115 21.0269L47.309 21.0269L45.0064 21.0269L45.0064 25.6319L45.0064 27.7426L43.2795 27.7426L38.6745 27.7426L36.9476 27.7426L36.9476 25.6319L36.9476 22.0822L36.9476 21.0269L36.9476 18.9162L36.9476 14.3111L32.3425 14.3111L30.6156 14.3111L26.8433 14.3111L26.0105 14.3111L24.2836 14.3111L19.6785 14.3111L19.6785 18.9162L19.6785 21.0269L19.6785 22.0822L19.6785 24.5114L19.6785 25.6319L19.6785 27.7426L11.6197 27.7426L11.6197 25.6319Z" fill="#7C58FF" stroke="#7C58FF" stroke-width="0.767512" stroke-linecap="round" stroke-linejoin="round"/>
<path d="M45.0066 7.595L45.0066 12.2001L49.6117 12.2001L49.6117 7.595L45.0066 7.595Z" stroke="#B49FFF" stroke-width="0.767512" stroke-linecap="round" stroke-linejoin="round"/>
</svg>
