<svg width="23" height="27" viewBox="0 0 23 27" fill="none" xmlns="http://www.w3.org/2000/svg">
<path d="M11.1826 19.9583C15.9127 19.9583 20.0499 21.9927 22.3 25.0281L19.9207 26.1532C18.0892 23.9832 14.86 22.5417 11.1826 22.5417C7.50524 22.5417 4.27607 23.9832 2.44449 26.1532L0.0665283 25.0268C2.31661 21.9914 6.45253 19.9583 11.1826 19.9583ZM11.1826 0.583344C12.8955 0.583344 14.5382 1.26377 15.7493 2.47495C16.9605 3.68612 17.6409 5.32882 17.6409 7.04168V10.9167C17.6408 12.5809 16.9983 14.1809 15.8473 15.383C14.6962 16.585 13.1256 17.2963 11.4629 17.3686L11.1826 17.375C9.46976 17.375 7.82705 16.6946 6.61588 15.4834C5.40471 14.2722 4.72428 12.6295 4.72428 10.9167V7.04168C4.72437 5.37741 5.36694 3.77743 6.51796 2.57538C7.66899 1.37334 9.23962 0.662031 10.9023 0.589802L11.1826 0.583344ZM11.1826 3.16668C10.1942 3.16662 9.24315 3.54426 8.52402 4.22233C7.80489 4.90041 7.37206 5.82765 7.31407 6.81434L7.30761 7.04168V10.9167C7.30664 11.9253 7.69901 12.8946 8.40136 13.6186C9.1037 14.3426 10.0607 14.7641 11.0689 14.7937C12.0771 14.8233 13.0572 14.4586 13.8008 13.7771C14.5444 13.0956 14.9929 12.151 15.0512 11.144L15.0576 10.9167V7.04168C15.0576 6.01396 14.6494 5.02834 13.9227 4.30164C13.1959 3.57493 12.2103 3.16668 11.1826 3.16668Z" fill="#7C828B"/>
</svg>
