<svg width="15" height="15" viewBox="0 0 15 15" fill="none" xmlns="http://www.w3.org/2000/svg">
<path d="M14.4092 2.19141L12.7412 0.523438C12.5771 0.359375 12.3584 0.25 12.1123 0.25H7.65527C6.6709 0.25 5.90527 1.04297 5.90527 2V9C5.93262 9.98438 6.69824 10.75 7.68262 10.75H12.9326C13.8896 10.75 14.6826 9.98438 14.6826 9V2.82031C14.6826 2.57422 14.5732 2.35547 14.4092 2.19141ZM13.3701 9C13.3701 9.24609 13.1514 9.4375 12.9326 9.4375H7.65527C7.40918 9.4375 7.21777 9.24609 7.21777 9V2.02734C7.21777 1.78125 7.40918 1.58984 7.65527 1.58984H11.1553L11.1826 2.875C11.1826 3.36719 11.5654 3.75 12.0576 3.75H13.3428V9H13.3701ZM8.12012 12.5C8.12012 12.7461 7.90137 12.9375 7.68262 12.9375H2.40527C2.15918 12.9375 1.96777 12.7461 1.96777 12.5V5.52734C1.96777 5.28125 2.18652 5.08984 2.40527 5.08984H5.05762V3.75H2.40527C1.44824 3.75 0.655273 4.54297 0.655273 5.5L0.682617 12.5C0.682617 13.4844 1.44824 14.25 2.43262 14.25H7.68262C8.63965 14.25 9.43262 13.4844 9.43262 12.5V11.625H8.12012V12.5Z" fill="white"/>
</svg>
