<svg width="15" height="15" viewBox="0 0 15 15" fill="none" xmlns="http://www.w3.org/2000/svg">
<path d="M8.55762 1.125C8.55762 0.660156 8.14746 0.25 7.68262 0.25C7.19043 0.25 6.80762 0.660156 6.80762 1.125V7.76953L4.78418 5.77344C4.45605 5.41797 3.88184 5.41797 3.55371 5.77344C3.19824 6.10156 3.19824 6.67578 3.55371 7.00391L7.05371 10.5039C7.38184 10.8594 7.95605 10.8594 8.28418 10.5039L11.7842 7.00391C12.1396 6.67578 12.1396 6.10156 11.7842 5.77344C11.4561 5.41797 10.8818 5.41797 10.5537 5.77344L8.55762 7.76953V1.125ZM2.43262 9.875C1.44824 9.875 0.682617 10.668 0.682617 11.625V12.5C0.682617 13.4844 1.44824 14.25 2.43262 14.25H12.9326C13.8896 14.25 14.6826 13.4844 14.6826 12.5V11.625C14.6826 10.668 13.8896 9.875 12.9326 9.875H10.1436L8.91309 11.1328C8.22949 11.8164 7.1084 11.8164 6.4248 11.1328L5.19434 9.875H2.43262ZM12.4951 12.7188C12.1123 12.7188 11.8389 12.4453 11.8389 12.0625C11.8389 11.707 12.1123 11.4062 12.4951 11.4062C12.8506 11.4062 13.1514 11.707 13.1514 12.0625C13.1514 12.4453 12.8506 12.7188 12.4951 12.7188Z" fill="white"/>
</svg>
